<svg xmlns="http://www.w3.org/2000/svg" viewBox="0 0 190 40" fill="none">
  <g fill="#0f172a">
    <circle cx="20" cy="12" r="2.5" /><circle cx="20" cy="20" r="2.5" /><circle cx="20" cy="28" r="2.5" />
    <circle cx="26" cy="16" r="2.5" /><circle cx="32" cy="24" r="2.5" />
    <circle cx="38" cy="12" r="2.5" /><circle cx="38" cy="20" r="2.5" /><circle cx="38" cy="28" r="2.5" />
    <circle cx="50" cy="12" r="2.5" /><circle cx="56" cy="12" r="2.5" /><circle cx="62" cy="12" r="2.5" />
    <circle cx="50" cy="20" r="2.5" /><circle cx="62" cy="20" r="2.5" />
    <circle cx="50" cy="28" r="2.5" /><circle cx="56" cy="28" r="2.5" /><circle cx="62" cy="28" r="2.5" />
    <circle cx="72" cy="12" r="2.5" /><circle cx="78" cy="12" r="2.5" /><circle cx="84" cy="12" r="2.5" />
    <circle cx="78" cy="20" r="2.5" /><circle cx="78" cy="28" r="2.5" />
    <circle cx="94" cy="12" r="2.5" /><circle cx="94" cy="20" r="2.5" /><circle cx="94" cy="28" r="2.5" />
    <circle cx="100" cy="20" r="2.5" />
    <circle cx="106" cy="12" r="2.5" /><circle cx="106" cy="20" r="2.5" /><circle cx="106" cy="28" r="2.5" />
    <circle cx="116" cy="12" r="2.5" /><circle cx="122" cy="12" r="2.5" /><circle cx="128" cy="12" r="2.5" />
    <circle cx="122" cy="20" r="2.5" />
    <circle cx="116" cy="28" r="2.5" /><circle cx="122" cy="28" r="2.5" /><circle cx="128" cy="28" r="2.5" />
    <circle cx="138" cy="12" r="2.5" /><circle cx="138" cy="20" r="2.5" /><circle cx="138" cy="28" r="2.5" />
    <circle cx="144" cy="16" r="2.5" /><circle cx="150" cy="24" r="2.5" />
    <circle cx="156" cy="12" r="2.5" /><circle cx="156" cy="20" r="2.5" /><circle cx="156" cy="28" r="2.5" />
    <circle cx="166" cy="12" r="2.5" /><circle cx="172" cy="12" r="2.5" /><circle cx="178" cy="12" r="2.5" />
    <circle cx="166" cy="20" r="2.5" /><circle cx="178" cy="20" r="2.5" />
    <circle cx="166" cy="28" r="2.5" /><circle cx="172" cy="28" r="2.5" /><circle cx="178" cy="28" r="2.5" />
    <circle cx="178" cy="24" r="2.5" /><circle cx="174" cy="24" r="2.5" />
  </g>
</svg>
